# xmcd
#
# Track frame offsets:
#	150
#	26805
#	51327
#	82512
#	105612
#	132107
#	159120
#	186217
#
# Disc length: 2789 seconds
#
# Revision: 3
# Processed by: cddbd v1.5.2PL0 Copyright (c) Steve Scherf et al.
# Submitted via: audiograbber 1.83.01
#
DISCID=570ae308
DTITLE=Paul Brady - Full Moon
DYEAR=1987
DGENRE=R&B
TTITLE0=Hard Station
TTITLE1=Not The Only One
TTITLE2=Take Me Away
TTITLE3=Busted Loose
TTITLE4=Dance The Romance
TTITLE5=Crazy Dreams
TTITLE6=Helpless Heart
TTITLE7=Steel Claw
EXTD=
EXTT0=
EXTT1=
EXTT2=
EXTT3=
EXTT4=
EXTT5=
EXTT6=
EXTT7=
PLAYORDER=
